# xmcd CD database file
#
# Track frame offsets:
#	183
#	22883
#	39073
#
# Disc length: 727 seconds
#
# Revision: 0
# Processed by: cddbd v1.5.2PL0 Copyright (c) Steve Scherf et al.
# Submitted via: CDex 1.51
#
DISCID=1102d503
DTITLE=Truck Stop - Alles Bingo
DYEAR=1991
DGENRE=Country
TTITLE0=Alles Bingo (Super-Bingo-Version)
TTITLE1=Wenn Du nur willst
TTITLE2=Alles Bingo (Radio-Version)
EXTD=YEAR: 1991
EXTT0=
EXTT1=
EXTT2=
PLAYORDER=
